<svg xmlns="http://www.w3.org/2000/svg" viewBox="120 26 160 556" width="160" height="556" role="img" aria-label="Frasco de body splash Royal Bloom, 200 ml">
  <title>Body splash Royal Bloom — 200 ml</title>
  <defs>
    <clipPath id="corpo-royal-bloom">
      <path d="M130 246 Q130 236 140 236 H260 Q270 236 270 246 V552 Q270 566 256 566 H144 Q130 566 130 552 Z"/>
    </clipPath>
  </defs>

  <!-- sobretampa transparente -->
  <rect x="139" y="42" width="122" height="176" rx="7" fill="#FFFFFF" opacity="0.3"/>
  <rect x="139" y="42" width="122" height="176" rx="7" fill="none" stroke="#DCDCDC" stroke-width="2.2"/>
  <line x1="151" y1="58" x2="151" y2="204" stroke="#FFFFFF" stroke-width="4" opacity="0.7"/>

  <!-- valvula -->
  <path d="M172 96 h56 a8 8 0 0 1 8 8 v34 h-72 v-34 a8 8 0 0 1 8 -8 z" fill="#FAFAFA" stroke="#D2D2D2" stroke-width="1.8"/>
  <rect x="186" y="80" width="28" height="18" rx="4" fill="#F2F2F2" stroke="#D2D2D2" stroke-width="1.6"/>
  <circle cx="200" cy="89" r="4.5" fill="#E4E4E4"/>

  <!-- gola dourada -->
  <rect x="158" y="140" width="84" height="50" rx="3" fill="#C89B5F"/>
    <line x1="168" y1="143" x2="168" y2="187" stroke="#9C7638" stroke-width="1.4" opacity="0.55"/>
    <line x1="179" y1="143" x2="179" y2="187" stroke="#9C7638" stroke-width="1.4" opacity="0.55"/>
    <line x1="190" y1="143" x2="190" y2="187" stroke="#9C7638" stroke-width="1.4" opacity="0.55"/>
    <line x1="201" y1="143" x2="201" y2="187" stroke="#9C7638" stroke-width="1.4" opacity="0.55"/>
    <line x1="212" y1="143" x2="212" y2="187" stroke="#9C7638" stroke-width="1.4" opacity="0.55"/>
    <line x1="223" y1="143" x2="223" y2="187" stroke="#9C7638" stroke-width="1.4" opacity="0.55"/>
    <line x1="234" y1="143" x2="234" y2="187" stroke="#9C7638" stroke-width="1.4" opacity="0.55"/>
  <rect x="158" y="140" width="84" height="50" rx="3" fill="none" stroke="#9C7638" stroke-width="1.6"/>
  <rect x="163" y="145" width="7" height="40" rx="3" fill="#FFFFFF" opacity="0.5"/>

  <!-- gargalo -->
  <path d="M164 190 h72 l10 30 h-92 z" fill="#FFFFFF" opacity="0.5"/>
  <path d="M164 190 h72 l10 30 h-92 z" fill="none" stroke="#DCDCDC" stroke-width="2"/>
  <rect x="148" y="220" width="104" height="18" rx="4" fill="#FFFFFF" opacity="0.5" stroke="#DCDCDC" stroke-width="2"/>

  <!-- corpo -->
  <path d="M130 246 Q130 236 140 236 H260 Q270 236 270 246 V552 Q270 566 256 566 H144 Q130 566 130 552 Z" fill="#FFFFFF" opacity="0.62"/>

  <!-- respingo, recortado dentro do corpo -->
  <g clip-path="url(#corpo-royal-bloom)">
      <path d="M136 556 C166 549 201 526 225 481 C239 454 245 431 247 409" stroke="#C22B5E" stroke-width="16" stroke-linecap="round" fill="none" opacity="0.82"/>
      <path d="M151 561 C183 553 215 533 235 497" stroke="#C22B5E" stroke-width="8" stroke-linecap="round" fill="none" opacity="0.5"/>
      <path d="M131 548 C160 559 211 561 269 545" stroke="#C22B5E" stroke-width="9" stroke-linecap="round" fill="none" opacity="0.55"/>
      <path d="M146 535 C171 543 206 544 241 533" stroke="#C22B5E" stroke-width="4" stroke-linecap="round" fill="none" opacity="0.32"/>
      <path d="M244 401 C248 387 251 377 251 366" stroke="#C22B5E" stroke-width="4" stroke-linecap="round" fill="none" opacity="0.45"/>
      <circle cx="253" cy="351" r="3.2" fill="#C22B5E" opacity="0.7"/>
      <circle cx="243" cy="378" r="2.2" fill="#C22B5E" opacity="0.55"/>
      <circle cx="259" cy="392" r="2.0" fill="#C22B5E" opacity="0.5"/>
      <circle cx="236" cy="430" r="1.8" fill="#C22B5E" opacity="0.45"/>
      <circle cx="262" cy="424" r="2.6" fill="#C22B5E" opacity="0.6"/>
      <circle cx="250" cy="448" r="1.7" fill="#C22B5E" opacity="0.42"/>
      <circle cx="224" cy="456" r="1.5" fill="#C22B5E" opacity="0.4"/>
      <circle cx="266" cy="462" r="2.2" fill="#C22B5E" opacity="0.52"/>
      <circle cx="210" cy="492" r="1.8" fill="#C22B5E" opacity="0.45"/>
      <circle cx="196" cy="512" r="1.5" fill="#C22B5E" opacity="0.38"/>
      <circle cx="176" cy="530" r="1.4" fill="#C22B5E" opacity="0.35"/>
      <circle cx="257" cy="330" r="2.0" fill="#C22B5E" opacity="0.5"/>
      <circle cx="240" cy="350" r="1.5" fill="#C22B5E" opacity="0.38"/>
      <circle cx="264" cy="369" r="1.4" fill="#C22B5E" opacity="0.35"/>
  </g>

  <!-- contorno do corpo por cima do respingo -->
  <path d="M130 246 Q130 236 140 236 H260 Q270 236 270 246 V552 Q270 566 256 566 H144 Q130 566 130 552 Z" fill="none" stroke="#DCDCDC" stroke-width="2.4"/>
  <line x1="143" y1="262" x2="143" y2="452" stroke="#FFFFFF" stroke-width="5" opacity="0.55"/>
  <line x1="258" y1="262" x2="258" y2="392" stroke="#FFFFFF" stroke-width="2.5" opacity="0.4"/>
  <line x1="200" y1="242" x2="200" y2="296" stroke="#DCDCDC" stroke-width="2.6"/>

  <!-- rotulo -->
  <g text-anchor="middle" fill="#111111">
    <text x="200" y="322" font-family="Georgia,'Times New Roman','Playfair Display',serif" font-size="25" letter-spacing="1.2">GOLDEN</text>
    <text x="200" y="346" font-family="Georgia,'Times New Roman','Playfair Display',serif" font-size="25" letter-spacing="1.2"><tspan fill="#C89B5F">&amp;</tspan>GRACE</text>
    <text x="200" y="386" font-family="'Helvetica Neue',Helvetica,Arial,sans-serif" font-size="9" letter-spacing="3.6">BODY SPLASH</text>
    <text x="200" y="418" font-family="Georgia,'Times New Roman','Playfair Display',serif" font-style="italic" font-size="24">Royal Bloom</text>
    <text x="200" y="456" font-family="'Helvetica Neue',Helvetica,Arial,sans-serif" font-size="11" font-weight="700" letter-spacing="0.4">200ML | 6.76 FL.OZ</text>
    <text x="200" y="524" font-family="'Helvetica Neue',Helvetica,Arial,sans-serif" font-size="9" letter-spacing="1.4">DESODORANTE</text>
    <text x="200" y="536" font-family="'Helvetica Neue',Helvetica,Arial,sans-serif" font-size="9" letter-spacing="1.4">CORPORAL</text>
  </g>
</svg>
